<svg preserveAspectRatio="xMinYMin meet"><g class="scaling-icon" style="fill-opacity:1"><g class="logo-14dp"><g class="dpi-1"><g fill="none" fill-rule="evenodd" class="inbug"><path fill="#FFF" d="M56 1.25v11.5c0 .69-.56 1.25-1.25 1.25h-11.5c-.69 0-1.25-.56-1.25-1.25V1.25C42 .56 42.56 0 43.25 0h11.5C55.44 0 56 .56 56 1.25" class="bug-text-color"/><path fill="#0073B0" d="M56 1.25v11.5c0 .69-.56 1.25-1.25 1.25h-11.5c-.69 0-1.25-.56-1.25-1.25V1.25C42 .56 42.56 0 43.25 0h11.5C55.44 0 56 .56 56 1.25ZM47 5h1.85v1.016h.043c.366-.475 1.125-1.078 2.357-1.078 1.875 0 2.75.87 2.75 3.062v4h-2V8.75c0-1.437-.328-1.875-1.368-1.875C49.5 6.875 49 7.75 49 9v3h-2V5Zm-3 7h2V5h-2v7Zm2.335-9a1.335 1.335 0 1 1-2.67 0 1.335 1.335 0 0 1 2.67 0Z" class="background"/></g><g class="linkedin-text"><path d="M40 12h-1.893v-.9h-.03c-.23.418-.952.962-1.91.962C34.174 12.062 33 10.521 33 8.5s1.291-3.562 3.2-3.562c.771 0 1.487.394 1.77.76H38V2h2v10Zm-3.525-5.25c-.958 0-1.6.74-1.6 1.75s.654 1.75 1.6 1.75c.947 0 1.65-.641 1.65-1.75 0-1.094-.692-1.75-1.65-1.75ZM31.763 10.822c-.666.767-1.832 1.24-3.263 1.24-2.161 0-3.5-1.375-3.5-3.614 0-2.054 1.433-3.51 3.658-3.51C30.676 4.938 32 6.35 32 8.653c0 .193-.03.347-.03.347h-5.147l.012.149c.119.67.766 1.43 1.8 1.43 1.018 0 1.572-.422 1.837-.72l1.29.963Zm-1.536-2.917c0-.842-.642-1.475-1.576-1.475-1.045 0-1.714.63-1.778 1.475h3.354ZM18 2h2v5.882L22.546 5H25l-3.1 3.199L24.889 12h-2.343L20 8.515V12h-2zM10 5h1.85v.906h.043c.39-.472 1.138-.968 2.247-.968 2.126 0 2.86 1.156 2.86 3.347V12h-2V8.73c0-.787-.179-1.98-1.341-1.98C12.482 6.75 12 7.844 12 8.73V12h-2V5ZM7 12h2V5H7v7ZM8 1.75c.659 0 1.25.591 1.25 1.25S8.659 4.25 8 4.25c-.66 0-1.25-.591-1.25-1.25S7.34 1.75 8 1.75ZM0 2h2v8h4v2H0z"/></g></g><g class="dpi-gt1"><g fill="none" fill-rule="evenodd" class="inbug"><path fill="#FFF" d="M54.7 0H42.77c-.57 0-1.056.451-1.056 1.008v11.986c0 .556.485 1.008 1.056 1.008H54.7c.571 0 1.014-.452 1.014-1.008V1.008C55.715.45 55.272 0 54.7 0" class="bug-text-color"/><path fill="#0073B0" d="M54.7 0H42.77c-.57 0-1.056.451-1.056 1.008v11.986c0 .556.485 1.008 1.056 1.008H54.7c.571 0 1.014-.452 1.014-1.008V1.008C55.715.45 55.272 0 54.7 0Zm-7.445 5.25h1.896v.953c.274-.548.974-1.04 2.026-1.04 2.017 0 2.496 1.09 2.496 3.091v3.706H51.63V8.71c0-1.14-.273-1.782-.969-1.782-.964 0-1.365.693-1.365 1.782v3.25h-2.042V5.25Zm-3.5 6.71h2.042V5.25h-2.042v6.71Zm2.334-8.897a1.313 1.313 0 1 1-2.626 0 1.313 1.313 0 0 1 2.626 0Z" class="background"/></g><g class="linkedin-text"><path d="M39.671 11.96h-1.75v-1.021c-.319.485-1.246 1.108-2.188 1.108-1.993 0-3.296-1.261-3.296-3.296 0-1.869 1.094-3.588 3.005-3.588.857 0 1.717.167 2.187.817V2.042h2.042v9.918Zm-3.719-4.988c-1.038 0-1.56.623-1.56 1.633s.522 1.663 1.56 1.663 1.706-.652 1.706-1.663c0-1.01-.668-1.633-1.706-1.633ZM31.504 10.83c-.665.844-1.997 1.217-3.282 1.217-2.076 0-3.37-1.443-3.37-3.588s1.547-3.296 3.662-3.296c1.75 0 3.223 1.23 3.223 3.588 0 .365-.058.583-.058.583h-4.843l.033.196c.116.642.805.971 1.608.971.678 0 1.186-.295 1.532-.766l1.495 1.094ZM29.68 7.875c.014-.692-.542-1.254-1.29-1.254-.913 0-1.498.603-1.554 1.254h2.844Z"/><path d="M18.377 2.042h2.042v5.834l2.334-2.625h2.552l-2.844 3.062 2.735 3.647h-2.443L20.419 8.75v3.209h-2.042zM10.793 5.25h1.75v.985c.276-.526 1.178-1.072 2.188-1.072 2.104 0 2.48 1.242 2.48 3.041v3.756h-2.043V8.642c0-.775.045-1.7-1.02-1.7-1.08 0-1.313.828-1.313 1.7v3.318h-2.042V5.25ZM8.605 1.787c.675 0 1.276.602 1.276 1.276S9.28 4.339 8.605 4.339c-.674 0-1.276-.602-1.276-1.276s.602-1.276 1.276-1.276ZM7.585 11.96h2.041V5.25H7.584v6.71ZM0 2.042h2.042v7.876h4.375v2.042H0z"/></g></g></g></g></svg>